<svg width="30" height="27" viewBox="0 0 30 27" fill="none" xmlns="http://www.w3.org/2000/svg">
<path d="M24.6066 4.73218L24.6076 4.73234C24.9582 4.78744 25.2538 4.96331 25.4394 5.2009C25.6225 5.43545 25.6874 5.71343 25.6364 5.97713C25.6364 5.97733 25.6364 5.97752 25.6363 5.97772L22.1502 23.8009L22.1501 23.8016C22.1243 23.9342 22.0691 24.0645 21.9844 24.1844C21.8995 24.3046 21.7863 24.4125 21.6483 24.4996C21.5103 24.5867 21.3516 24.6502 21.1809 24.6843C21.0102 24.7184 20.833 24.722 20.6605 24.6946L5.39689 22.2688L5.39608 22.2687C5.22353 22.2415 5.06119 22.1843 4.91816 22.1025C4.77521 22.0208 4.65579 21.9169 4.56426 21.7994C4.47287 21.6822 4.4108 21.5536 4.37819 21.4216C4.34563 21.2899 4.3423 21.1546 4.36812 21.0222C4.36813 21.0222 4.36815 21.0221 4.36816 21.022L7.85442 3.19816C7.85442 3.19813 7.85443 3.1981 7.85443 3.19808C7.90654 2.93223 8.07774 2.67688 8.35637 2.50122C8.63646 2.32464 8.99235 2.25096 9.34292 2.3064C9.34303 2.30642 9.34313 2.30643 9.34324 2.30645L24.6066 4.73218ZM16.4677 13.9909L16.4677 13.9908C16.5059 13.7957 16.501 13.5953 16.4534 13.4023C16.4058 13.2095 16.3174 13.0308 16.1966 12.8757C16.0758 12.7208 15.9255 12.5927 15.7565 12.496C15.5876 12.3994 15.402 12.3352 15.2105 12.305L10.35 11.5362L10.3329 11.5335L10.3157 11.5318C9.94523 11.495 9.56704 11.585 9.25624 11.7944L9.59144 12.292L9.25623 11.7944C8.94407 12.0047 8.71601 12.3259 8.64146 12.704C8.56655 13.0838 8.65725 13.4696 8.88128 13.7794C9.10346 14.0866 9.43565 14.2921 9.7996 14.3727L9.81724 14.3766L9.83508 14.3794L14.6984 15.1525L14.7007 15.1529C14.7853 15.166 14.8708 15.1726 14.9564 15.1726L14.9572 15.1726C15.302 15.1723 15.6432 15.0631 15.9204 14.8536C16.1987 14.6432 16.3991 14.3406 16.4677 13.9909ZM20.4667 12.6224L20.4668 12.6224C20.8113 12.6216 21.1521 12.5123 21.429 12.3028C21.5675 12.1979 21.6867 12.0702 21.7799 11.9252H21.8842L21.979 11.4405C22.0173 11.2451 22.0123 11.0446 21.9645 10.8516C21.9168 10.6587 21.8282 10.4799 21.7072 10.3248C21.5863 10.1699 21.4357 10.0418 21.2665 9.94523L20.9691 10.4663L21.2665 9.94523C21.0977 9.84887 20.9123 9.78488 20.721 9.75486C20.7206 9.75481 20.7203 9.75476 20.72 9.7547L10.9952 8.20881C10.9951 8.2088 10.995 8.20879 10.995 8.20878C10.6111 8.14767 10.2112 8.22468 9.88036 8.4329C9.5479 8.64211 9.30287 8.9743 9.22513 9.3695C9.14699 9.76678 9.25004 10.169 9.49491 10.4842C9.73754 10.7965 10.0953 10.9948 10.4794 11.0561L10.4797 11.0561L20.2037 12.6008C20.2906 12.6153 20.3786 12.6225 20.4667 12.6224ZM10.8341 5.6063L10.5213 5.0943C10.3522 5.19762 10.2035 5.33309 10.0867 5.49547L10.5737 5.84585L10.0867 5.49547C9.9697 5.65807 9.88761 5.84383 9.84869 6.04226C9.80975 6.24085 9.81553 6.44475 9.8654 6.64071C9.91521 6.83648 10.0072 7.0173 10.1323 7.17333C10.2572 7.32917 10.4123 7.45693 10.586 7.55192C10.7571 7.64547 10.9443 7.70626 11.1368 7.73279L20.8566 9.27789L20.8594 9.27832C20.9436 9.29131 21.0288 9.29787 21.1141 9.29798L21.1154 9.29798C21.4602 9.29765 21.8014 9.18852 22.0786 8.97896C22.2175 8.874 22.3369 8.74609 22.4303 8.60083H22.5347L22.6295 8.11595C22.6677 7.92049 22.6626 7.71986 22.6147 7.52669C22.5669 7.33369 22.4781 7.15488 22.3569 6.99976C22.2358 6.84481 22.085 6.71679 21.9156 6.62032C21.7467 6.52408 21.5611 6.46025 21.3697 6.43041C21.3693 6.43035 21.3689 6.43029 21.3685 6.43023L11.6509 4.88653C11.4597 4.85209 11.2631 4.85201 11.0718 4.8863C10.8776 4.92109 10.6903 4.99104 10.5213 5.0943L10.8341 5.6063Z" fill="white" stroke="#FF6C37" stroke-width="1.2"/>
</svg>
