<svg width="45" height="45" viewBox="0 0 45 45" fill="none" xmlns="http://www.w3.org/2000/svg">
<circle cx="22.5" cy="22.5" r="22.5" fill="#FF6C37"/>
<path d="M12.125 12.6875C12.125 12.4389 12.2337 12.2004 12.4271 12.0246C12.6205 11.8488 12.8828 11.75 13.1563 11.75C13.4298 11.75 13.6921 11.8488 13.8855 12.0246C14.0789 12.2004 14.1875 12.4389 14.1875 12.6875V20.51L19.2063 18.1075C19.3618 18.0332 19.5357 17.9963 19.7114 18.0002C19.887 18.0041 20.0587 18.0488 20.21 18.13L25.4625 20.9375L33.1625 15.6875C33.3157 15.583 33.4979 15.5194 33.6887 15.5038C33.8794 15.4882 34.0712 15.5211 34.2425 15.599C34.4137 15.6768 34.5578 15.7965 34.6585 15.9446C34.7592 16.0927 34.8125 16.2634 34.8125 16.4375V32.375H35.8438C36.1173 32.375 36.3796 32.4738 36.573 32.6496C36.7664 32.8254 36.875 33.0639 36.875 33.3125C36.875 33.5611 36.7664 33.7996 36.573 33.9754C36.3796 34.1512 36.1173 34.25 35.8438 34.25H13.1563C12.8828 34.25 12.6205 34.1512 12.4271 33.9754C12.2337 33.7996 12.125 33.5611 12.125 33.3125V22.08C12.1248 22.0688 12.1248 22.0575 12.125 22.0463V12.6875ZM14.1875 22.6287V32.375H32.75V18.3125L26.15 22.8125C25.9872 22.9233 25.792 22.9879 25.589 22.9981C25.3859 23.0084 25.184 22.9638 25.0088 22.87L19.66 20.0113L14.1875 22.6287Z" fill="white"/>
</svg>
