<svg width="17" height="24" viewBox="0 0 17 24" fill="none" xmlns="http://www.w3.org/2000/svg">
<g clip-path="url(#clip0_240_21)">
<rect width="17" height="24" fill="white"/>
<path d="M11.0856 14.6855C10.3733 15.3979 9.4075 15.7987 8.40009 15.8C7.39269 15.7987 6.42692 15.3979 5.71455 14.6855C5.00206 13.9731 4.60127 13.007 4.6001 11.9994V4.8C4.6001 3.79218 5.00045 2.82563 5.71309 2.11299C6.42573 1.40036 7.39227 1 8.4001 1C9.40792 1 10.3745 1.40036 11.0871 2.11299C11.7997 2.82563 12.2001 3.79218 12.2001 4.8L12.2001 11.999C12.2001 11.9992 12.2001 11.9995 12.2001 11.9998C12.1988 13.0073 11.7981 13.9731 11.0856 14.6855Z" fill="white" stroke="#9E9E9E" stroke-width="2"/>
<path d="M8.2 20.304V19.426L7.32935 19.3124L7.29344 19.3077C5.54602 19.0422 3.95104 18.1605 2.79679 16.8217C1.64063 15.4806 1.0032 13.7697 1 11.9991V9.60003C1 9.54698 1.02107 9.49611 1.05858 9.4586C1.09609 9.4211 1.14696 9.40002 1.2 9.40002C1.25304 9.40002 1.30391 9.4211 1.34142 9.4586C1.37893 9.49611 1.4 9.54698 1.4 9.60003V12C1.4 13.8565 2.1375 15.637 3.45025 16.9498C4.76301 18.2625 6.54348 19 8.4 19C10.2565 19 12.037 18.2625 13.3497 16.9498C14.6625 15.637 15.4 13.8565 15.4 12V9.60003C15.4 9.54698 15.4211 9.49611 15.4586 9.4586C15.4961 9.4211 15.547 9.40002 15.6 9.40002C15.653 9.40002 15.7039 9.4211 15.7414 9.4586C15.7789 9.49611 15.8 9.54698 15.8 9.60003L15.8 11.9994C15.8 11.9995 15.8 11.9997 15.8 11.9999C15.8 12 15.8 12 15.8 12C15.7935 15.7044 13.0636 18.7773 9.45272 19.3149L8.6 19.4419V20.304V21.6V22.6H9.6H13.2C13.2263 22.6 13.2523 22.6052 13.2765 22.6152C13.3008 22.6253 13.3229 22.64 13.3414 22.6586C13.36 22.6772 13.3747 22.6992 13.3848 22.7235C13.3948 22.7478 13.4 22.7738 13.4 22.8C13.4 22.8263 13.3948 22.8523 13.3848 22.8766C13.3747 22.9008 13.36 22.9229 13.3414 22.9414C13.3229 22.96 13.3008 22.9747 13.2765 22.9848C13.2523 22.9949 13.2263 23 13.2 23H3.6C3.57374 23 3.54773 22.9949 3.52346 22.9848C3.49919 22.9747 3.47715 22.96 3.45858 22.9414C3.44001 22.9229 3.42528 22.9008 3.41522 22.8766C3.40517 22.8523 3.4 22.8263 3.4 22.8C3.4 22.7738 3.40517 22.7478 3.41522 22.7235C3.42528 22.6992 3.44001 22.6772 3.45858 22.6586C3.47715 22.64 3.49919 22.6253 3.52346 22.6152C3.54773 22.6052 3.57374 22.6 3.6 22.6H7.2H8.2V21.6V20.304Z" fill="white" stroke="#9E9E9E" stroke-width="2"/>
</g>
<defs>
<clipPath id="clip0_240_21">
<rect width="17" height="24" fill="white"/>
</clipPath>
</defs>
</svg>
