<svg width="18" height="24" viewBox="0 0 18 24" fill="none" xmlns="http://www.w3.org/2000/svg">
<g clip-path="url(#clip0_116_1630)">
<rect width="17" height="24" transform="translate(0.5)" fill="white"/>
<path d="M11.5856 14.6855C10.8733 15.3979 9.9075 15.7987 8.9001 15.8C7.8927 15.7987 6.92692 15.3979 6.21455 14.6855C5.50206 13.9731 5.10127 13.007 5.1001 11.9994V4.8C5.1001 3.79218 5.50045 2.82563 6.21309 2.11299C6.92573 1.40036 7.89227 1 8.9001 1C9.90792 1 10.8745 1.40036 11.5871 2.11299C12.2997 2.82563 12.7001 3.79218 12.7001 4.8L12.7001 11.999C12.7001 11.9992 12.7001 11.9995 12.7001 11.9998C12.6988 13.0073 12.2981 13.9731 11.5856 14.6855Z" fill="white" stroke="#FF6C37" stroke-width="2"/>
<path d="M8.7 20.304V19.426L7.82935 19.3124L7.79345 19.3077C6.04602 19.0422 4.45104 18.1605 3.29679 16.8217C2.14063 15.4806 1.5032 13.7697 1.5 11.9991V9.60003C1.5 9.54698 1.52107 9.49611 1.55858 9.4586C1.59609 9.4211 1.64696 9.40002 1.7 9.40002C1.75304 9.40002 1.80391 9.4211 1.84142 9.4586C1.87893 9.49611 1.9 9.54698 1.9 9.60003V12C1.9 13.8565 2.6375 15.637 3.95025 16.9498C5.26301 18.2625 7.04348 19 8.9 19C10.7565 19 12.537 18.2625 13.8497 16.9498C15.1625 15.637 15.9 13.8565 15.9 12V9.60003C15.9 9.54698 15.9211 9.49611 15.9586 9.4586C15.9961 9.4211 16.047 9.40002 16.1 9.40002C16.153 9.40002 16.2039 9.4211 16.2414 9.4586C16.2789 9.49611 16.3 9.54698 16.3 9.60003L16.3 11.9994C16.3 11.9995 16.3 11.9997 16.3 11.9999C16.3 12 16.3 12 16.3 12C16.2935 15.7044 13.5636 18.7773 9.95272 19.3149L9.1 19.4419V20.304V21.6V22.6H10.1H13.7C13.7263 22.6 13.7523 22.6052 13.7765 22.6152C13.8008 22.6253 13.8229 22.64 13.8414 22.6586C13.86 22.6772 13.8747 22.6992 13.8848 22.7235C13.8948 22.7478 13.9 22.7738 13.9 22.8C13.9 22.8263 13.8948 22.8523 13.8848 22.8766C13.8747 22.9008 13.86 22.9229 13.8414 22.9414C13.8229 22.96 13.8008 22.9747 13.7765 22.9848C13.7523 22.9949 13.7263 23 13.7 23H4.1C4.07374 23 4.04773 22.9949 4.02346 22.9848C3.99919 22.9747 3.97715 22.96 3.95858 22.9414C3.94001 22.9229 3.92528 22.9008 3.91522 22.8766C3.90517 22.8523 3.9 22.8263 3.9 22.8C3.9 22.7738 3.90517 22.7478 3.91522 22.7235C3.92528 22.6992 3.94001 22.6772 3.95858 22.6586C3.97715 22.64 3.99919 22.6253 4.02346 22.6152C4.04773 22.6052 4.07374 22.6 4.1 22.6H7.7H8.7V21.6V20.304Z" fill="white" stroke="#FF6C37" stroke-width="2"/>
</g>
<defs>
<clipPath id="clip0_116_1630">
<rect width="17" height="24" fill="white" transform="translate(0.5)"/>
</clipPath>
</defs>
</svg>
