<svg width="26" height="25" viewBox="0 0 26 25" fill="none" xmlns="http://www.w3.org/2000/svg">
<path d="M13 1.05285L24.5 10.91L24.5 22.5C24.5 22.8978 24.342 23.2794 24.0607 23.5607C23.7794 23.842 23.3978 24 23 24H16.5V19.1667C16.5 18.2384 16.1313 17.3482 15.4749 16.6918C14.8185 16.0354 13.9283 15.6667 13 15.6667C12.0717 15.6667 11.1815 16.0354 10.5251 16.6918C9.86875 17.3482 9.5 18.2384 9.5 19.1667V24H3C2.60217 24 2.22064 23.842 1.93934 23.5607C1.65803 23.2794 1.5 22.8978 1.5 22.5L1.5 10.91L13 1.05285Z" fill="#FF6C37" stroke="#FF6C37" stroke-width="2"/>
</svg>
