<svg width="28" height="27" viewBox="0 0 28 27" fill="none" xmlns="http://www.w3.org/2000/svg">
<path d="M14 5.5C14.9283 5.5 15.8185 5.86875 16.4749 6.52513C17.1313 7.1815 17.5 8.07174 17.5 9C17.5 9.92826 17.1313 10.8185 16.4749 11.4749C15.8185 12.1313 14.9283 12.5 14 12.5C13.0717 12.5 12.1815 12.1313 11.5251 11.4749C10.8687 10.8185 10.5 9.92826 10.5 9C10.5 8.07174 10.8687 7.1815 11.5251 6.52513C12.1815 5.86875 13.0717 5.5 14 5.5ZM14 16.75C16.3648 16.75 18.4552 17.231 19.9175 17.9621C21.4393 18.723 22 19.5895 22 20.25V21.5H6V20.25C6 19.5895 6.56075 18.723 8.08253 17.9621C9.54475 17.231 11.6352 16.75 14 16.75Z" fill="white" stroke="#FF6C37" stroke-width="2"/>
</svg>
